<mxfile host="Electron" modified="2023-09-14T07:10:37.421Z" agent="Mozilla/5.0 (Windows NT 10.0; Win64; x64) AppleWebKit/537.36 (KHTML, like Gecko) draw.io/21.5.1 Chrome/112.0.5615.204 Electron/24.6.0 Safari/537.36" etag="wkClNvaqufaiPYphRK3c" version="21.5.1" type="device">
  <diagram name="第 1 页" id="QBxuN26RDLddkOAQD2wr">
    <mxGraphModel dx="941" dy="692" grid="1" gridSize="10" guides="1" tooltips="1" connect="1" arrows="1" fold="1" page="1" pageScale="1" pageWidth="827" pageHeight="1169" math="0" shadow="0">
      <root>
        <mxCell id="0" />
        <mxCell id="1" parent="0" />
        <mxCell id="PyTQeRn1aZ-g2VWNdeGD-3" style="edgeStyle=orthogonalEdgeStyle;rounded=0;orthogonalLoop=1;jettySize=auto;html=1;exitX=0.5;exitY=1;exitDx=0;exitDy=0;endArrow=none;endFill=0;" edge="1" parent="1" source="GgDtMRvrFvS02ZCUQ_Kf-7" target="PyTQeRn1aZ-g2VWNdeGD-1">
          <mxGeometry relative="1" as="geometry" />
        </mxCell>
        <mxCell id="PyTQeRn1aZ-g2VWNdeGD-4" style="edgeStyle=orthogonalEdgeStyle;rounded=0;orthogonalLoop=1;jettySize=auto;html=1;exitX=0.5;exitY=1;exitDx=0;exitDy=0;entryX=0.5;entryY=0;entryDx=0;entryDy=0;endArrow=none;endFill=0;" edge="1" parent="1" source="GgDtMRvrFvS02ZCUQ_Kf-7" target="PyTQeRn1aZ-g2VWNdeGD-2">
          <mxGeometry relative="1" as="geometry" />
        </mxCell>
        <mxCell id="GgDtMRvrFvS02ZCUQ_Kf-7" value="共性基础字典" style="rounded=0;whiteSpace=wrap;html=1;" parent="1" vertex="1">
          <mxGeometry x="380" y="80" width="120" height="60" as="geometry" />
        </mxCell>
        <mxCell id="PyTQeRn1aZ-g2VWNdeGD-1" value="共性基础字典管理" style="rounded=0;whiteSpace=wrap;html=1;" vertex="1" parent="1">
          <mxGeometry x="290" y="180" width="120" height="60" as="geometry" />
        </mxCell>
        <mxCell id="PyTQeRn1aZ-g2VWNdeGD-2" value="共性基础字典外部接口" style="rounded=0;whiteSpace=wrap;html=1;" vertex="1" parent="1">
          <mxGeometry x="470" y="180" width="120" height="60" as="geometry" />
        </mxCell>
      </root>
    </mxGraphModel>
  </diagram>
</mxfile>
